<svg width="320" height="321" viewBox="0 0 320 321" fill="none" xmlns="http://www.w3.org/2000/svg">
<path d="M172.048 194.526C171.63 189.535 171.475 184.526 171.584 179.518C171.584 179.102 170.976 178.99 170.928 179.518C170.405 184.537 170.459 189.6 171.088 194.606C171.099 194.734 171.16 194.852 171.257 194.934C171.355 195.017 171.481 195.057 171.608 195.046C171.736 195.036 171.853 194.975 171.936 194.877C172.019 194.78 172.059 194.654 172.048 194.526ZM164.8 192.654C164.829 192.719 164.876 192.774 164.936 192.813C164.996 192.852 165.065 192.872 165.136 192.872C165.207 192.872 165.277 192.852 165.337 192.813C165.396 192.774 165.443 192.719 165.472 192.654C165.248 187.614 165.04 182.558 164.816 177.502C164.816 177.417 164.783 177.336 164.723 177.276C164.663 177.216 164.581 177.182 164.496 177.182C164.411 177.182 164.33 177.216 164.27 177.276C164.21 177.336 164.176 177.417 164.176 177.502C163.963 181.32 164.006 185.147 164.304 188.958C164.315 190.206 164.481 191.448 164.8 192.654ZM206.736 193.294C206.893 195.766 206.617 198.246 205.92 200.622C205.92 200.99 206.992 203.022 207.664 197.182C208.086 193.238 207.263 189.26 205.312 185.806C205.104 185.422 204.56 185.806 204.736 186.142C205.844 188.381 206.522 190.806 206.736 193.294ZM187.344 77.6304C187.333 78.8344 187.74 80.005 188.496 80.9423C189.456 81.8064 190.944 78.4464 195.408 77.9184V73.5984C192.294 73.8263 189.395 75.2755 187.344 77.6304ZM229.408 193.198C229.408 189.902 229.12 186.622 229.056 183.326C229.056 182.878 228.368 182.974 228.368 183.422C228.368 186.83 228.368 190.27 228.512 193.694C228.576 195.95 229.456 195.118 229.408 193.198ZM198.4 73.5184L198.496 77.8384C204.016 78.0304 205.616 82.1904 206.208 80.8944C206.464 80.3024 207.504 77.3424 206.944 76.8303C204.595 74.7215 201.557 73.5436 198.4 73.5184ZM83.5683 47.5504C82.7363 47.9984 83.5683 49.9664 84.2243 49.5344C84.8803 49.1024 84.4803 47.0224 83.5683 47.5504ZM82.5123 42.7344C81.3923 42.8464 81.3603 43.9984 82.5123 44.1424C83.3468 44.2071 84.1561 44.4586 84.8803 44.8784C85.3123 45.1664 85.7763 44.5904 85.5203 44.1904C85.1907 43.7052 84.7392 43.3152 84.2112 43.0597C83.6833 42.8041 83.0974 42.6919 82.5123 42.7344ZM79.6483 48.3664C80.0765 49.4894 80.4136 50.6452 80.6563 51.8224C80.9283 53.1984 80.9123 53.5664 80.8483 53.6464C80.5899 53.6547 80.3328 53.6868 80.0803 53.7424C79.6163 53.9024 79.6163 54.4944 80.3363 54.8304C80.5316 54.929 80.7521 54.9666 80.969 54.938C81.1859 54.9095 81.3892 54.8162 81.5523 54.6704C82.3843 53.8704 82.0323 51.6144 80.5283 47.9664C80.4753 47.8497 80.378 47.7588 80.258 47.7138C80.138 47.6688 80.005 47.6733 79.8883 47.7264C79.7716 47.7794 79.6808 47.8766 79.6358 47.9966C79.5908 48.1167 79.5953 48.2497 79.6483 48.3664Z" fill="#27272A"/>
<path d="M311.552 241.102H288.848C290.944 229.902 278.496 222.014 270.752 226.142C269.957 222.261 267.772 218.805 264.608 216.421C261.443 214.038 257.518 212.892 253.568 213.198C253.147 210.449 252.107 207.831 250.527 205.542C248.948 203.253 246.869 201.352 244.448 199.982C243.696 191.022 244.032 181.902 244.048 173.054C245.408 173.15 248.672 173.454 248.144 172.158C246.544 168.19 243.808 161.566 241.744 157.758C242.576 157.758 243.52 157.758 243.52 156.91C243.776 141.55 244.272 109.326 244.272 109.326C244.528 90.2543 245.168 68.3343 231.776 52.6383C231.36 52.1423 230.784 51.9663 230.416 52.4783C224.968 60.1915 221.386 69.0646 219.952 78.3983C219.408 69.2783 218.688 58.9743 217.28 48.7823C214.88 31.4863 209.088 19.8703 199.68 12.9743C198.784 12.3183 197.472 11.2623 196.88 11.6783C182.192 22.0783 177.872 40.2223 176.848 53.6143C176.48 59.3103 176.368 65.0863 176.512 70.8143C174.544 63.4703 167.792 49.1343 165.312 52.5903C153.76 69.1343 154.736 90.5103 155.712 109.374C157.312 145.31 157.792 154.574 158 156.99C158 157.774 158 158.302 160.208 158.062C155.552 170.398 154.592 172.462 155.008 172.814C155.424 173.166 157.072 173.054 157.872 173.006C157.76 178.398 159.04 204.606 158.864 205.998C157.703 207.413 156.769 209 156.096 210.702C153.369 211.444 150.837 212.776 148.681 214.604C146.525 216.431 144.796 218.71 143.616 221.278C141.488 221.07 139.342 221.423 137.392 222.302C135.472 201.006 131.536 168.814 126.72 147.374C134.96 148.446 138.896 144.75 140.8 141.55C145.6 133.182 142.4 119.278 136.448 111.582C131.41 100.865 124.022 91.42 114.832 83.9503C115.808 82.0943 113.232 73.6623 106.688 70.1903C103.888 68.7023 100.16 68.5903 98.4482 66.9903C94.7842 63.4063 97.2482 53.8703 89.6162 51.3743C89.1226 47.4308 88.3038 43.5349 87.1682 39.7263C96.7682 35.5983 96.2722 24.4303 90.6082 21.2623C85.3282 18.3183 82.4162 22.4943 78.9442 23.6623C74.1442 25.2623 70.0642 21.8063 63.7602 21.8063C51.8722 21.8063 49.0562 33.7743 48.4322 34.3663C47.8082 34.9583 47.5682 38.3343 42.2722 40.4143C36.6402 42.6063 29.4722 42.7343 26.4162 49.3583C23.8242 55.1503 28.8002 62.2223 25.3762 67.5823C23.3762 70.7823 16.1922 70.9743 10.9762 79.3423C5.39222 88.2543 7.26422 100.35 14.9602 105.374C8.33622 120.254 8.64022 136.078 15.7442 146.734C22.2402 156.446 32.8322 160.094 44.3362 159.79C43.7602 186.894 44.0002 213.918 42.5602 241.198C37.3602 241.198 32.1442 241.31 27.0402 241.406C26.8959 241.406 26.7576 241.464 26.6556 241.566C26.5535 241.668 26.4962 241.806 26.4962 241.95C26.4962 242.095 26.5535 242.233 26.6556 242.335C26.7576 242.437 26.8959 242.494 27.0402 242.494C31.6002 242.59 36.9922 242.686 42.4642 242.686C41.5842 258.574 40.4002 274.686 38.9442 290.478C38.8002 292.078 42.5442 291.982 44.1282 292.078C43.6907 294.301 43.5242 296.568 43.6322 298.83C42.4162 299.902 40.6402 307.23 40.7362 308.59C40.7362 308.878 40.8642 309.054 41.0562 309.086C42.8162 309.374 69.4082 310.686 70.6402 309.23C70.671 309.174 70.6872 309.111 70.6872 309.046C70.6872 308.982 70.671 308.919 70.6402 308.862C68.8642 304.062 62.6402 300.014 57.5522 298.702L58.9282 292.574C59.9842 292.574 62.1282 292.734 62.4322 292.174C69.5842 276.046 76.0962 259.39 81.7762 242.702H105.04C109.472 256.928 113.384 271.311 116.768 285.822C118.128 291.678 117.184 291.358 120.96 291.534C120.942 293.816 121.217 296.09 121.776 298.302C120.549 301.19 119.808 304.261 119.584 307.39C119.553 307.444 119.537 307.505 119.537 307.566C119.537 307.628 119.553 307.689 119.584 307.742C120.592 309.022 149.312 310.094 151.28 308.926C152.88 307.902 144.112 299.406 136.336 297.838C136.448 295.795 136.4 293.746 136.192 291.71C137.552 291.71 140.688 292.078 140.688 290.734C140.688 275.63 140.176 259.454 139.088 242.734H311.6C311.817 242.728 312.022 242.636 312.17 242.478C312.319 242.321 312.399 242.111 312.392 241.894C312.386 241.678 312.294 241.473 312.136 241.324C311.979 241.176 311.769 241.096 311.552 241.102ZM94.8322 212.558C98.8162 223.518 100.944 230.334 104.544 241.246H82.2562C86.1442 229.742 91.5202 212.446 95.0562 197.902C96.2562 193.102 98.6722 195.134 97.7922 199.038C96.7682 203.854 94.7842 212.446 94.8322 212.558ZM135.2 297.998C132.464 299.246 125.6 299.166 122.928 298.398C122.752 296.11 122.288 293.822 122.256 291.534L134.832 291.678C134.944 293.79 135.072 295.886 135.2 297.998ZM45.6002 159.774C59.0402 159.102 75.0242 152.958 88.4002 143.31C88.6882 143.102 88.9442 143.054 89.0242 142.782C89.1042 142.51 89.0242 142.286 88.5442 141.598C92.3016 139.839 96.247 138.513 100.304 137.646C101.904 137.358 106.592 136.462 107.44 133.918L110.928 133.822C114.288 140.782 119.632 145.614 125.616 147.118L128.816 166.142C102.384 175.246 78.2562 177.182 45.6962 172.75C45.8082 168.446 45.8242 164.078 45.6482 159.774H45.6002ZM87.5362 62.2543C85.2962 68.0623 80.6242 68.3023 81.3762 69.6783V70.1743C81.6802 72.7183 82.2722 77.9503 78.1762 81.6463C71.2642 78.8943 66.9762 75.7263 63.7762 71.1183C64.4482 69.9503 63.7762 64.8463 63.7762 64.7983C62.7842 59.5823 58.2402 58.5263 59.2642 53.8063C59.4082 53.1183 59.6162 52.7183 59.8882 52.5903C60.7842 52.1903 63.0882 55.2783 63.5682 51.6943C64.3202 46.5743 65.7602 42.6223 70.8322 41.1823C75.5362 39.8543 80.0802 42.1263 86.1602 40.0303C87.5362 45.7263 89.9042 56.0303 87.5362 62.2543ZM78.4162 83.0543C81.1842 82.3663 83.5522 75.5663 82.9762 71.7583C87.2943 72.3683 91.547 73.3752 95.6802 74.7663C110.72 80.1263 123.776 91.5823 132.592 107.134C126.576 101.374 118.704 98.1263 111.584 98.5743C109.314 94.8541 106.706 91.3513 103.792 88.1103C103.749 88.0623 103.696 88.0239 103.636 87.9976C103.577 87.9713 103.513 87.9577 103.448 87.9577C103.383 87.9577 103.319 87.9713 103.26 87.9976C103.201 88.0239 103.148 88.0623 103.104 88.1103C103.058 88.1551 103.022 88.2085 102.997 88.2676C102.972 88.3267 102.959 88.3902 102.959 88.4543C102.959 88.5185 102.972 88.5819 102.997 88.641C103.022 88.7001 103.058 88.7536 103.104 88.7983C105.661 91.9771 108.017 95.3115 110.16 98.7823C108.04 99.1024 105.995 99.8073 104.128 100.862C103.826 100.892 103.526 100.946 103.232 101.022C102.354 101.221 101.46 101.344 100.56 101.39C96.8162 101.39 96.6722 99.7903 95.3282 99.9663C92.6562 100.238 93.4402 105.518 99.5842 106.638C98.4802 109.726 97.9842 116.526 100.048 119.438C97.5842 119.438 96.0002 118.926 95.9042 121.438C95.8721 121.891 95.8721 122.346 95.9042 122.798C95.1109 122.288 94.2129 121.962 93.2768 121.846C92.3406 121.73 91.3903 121.826 90.4962 122.126C88.8162 122.766 85.6162 126.11 84.0002 127.502C84.0002 126.83 84.0002 125.806 83.4082 125.742C73.2482 124.894 57.8082 124.654 48.5602 124.91C48.0532 118.383 48.1389 111.823 48.8162 105.31C48.8438 105.177 48.8172 105.038 48.7421 104.923C48.6671 104.809 48.5499 104.73 48.4162 104.702C48.2826 104.675 48.1434 104.701 48.0294 104.776C47.9154 104.851 47.8358 104.969 47.8082 105.102C47.2962 107.982 46.3042 119.726 47.3442 124.958L34.2402 125.822C34.1435 125.831 34.0518 125.87 33.9772 125.932C33.9027 125.995 33.8489 126.078 33.8229 126.172C33.7969 126.265 33.7999 126.365 33.8316 126.457C33.8632 126.548 33.922 126.629 34.0002 126.686C34.0453 126.727 34.099 126.756 34.1572 126.773C34.2154 126.79 34.2766 126.793 34.3362 126.782C50.4902 125.793 66.6927 125.9 82.8322 127.102C82.9066 132.508 84.5339 137.779 87.5202 142.286C66.1762 157.662 31.0562 167.71 16.7202 145.918C6.40022 130.35 11.5202 103.15 30.6562 86.5423C39.7965 78.7056 50.9172 73.5355 62.8002 71.5983C65.6962 77.1183 76.3202 83.5343 78.4002 83.0223L78.4162 83.0543ZM102.128 102.446C101.313 103.307 100.628 104.283 100.096 105.342C97.1042 104.894 95.4082 103.326 95.1202 102.03C94.8962 101.134 95.4242 100.766 96.5282 101.518C98.2649 102.366 100.211 102.688 102.128 102.446ZM109.904 111.262C109.823 111.356 109.775 111.473 109.768 111.596C109.76 111.72 109.794 111.842 109.863 111.944C109.933 112.047 110.034 112.123 110.151 112.162C110.269 112.201 110.396 112.199 110.512 112.158C111.808 111.646 112.416 111.758 112.512 111.998C112.608 112.238 112.096 113.422 111.056 113.934C110.384 114.27 109.088 114.574 108.096 112.766C107.28 111.294 108.672 109.678 108.096 109.342C107.52 109.006 105.888 111.486 107.28 113.662C106.993 113.873 106.649 113.993 106.292 114.008C105.936 114.022 105.584 113.929 105.28 113.742C104.576 113.198 104.096 111.678 104.912 108.942C105.216 107.886 103.424 107.614 103.2 112.142C103.104 112.766 102.416 116.606 102.208 117.902C102 119.198 101.712 119.294 101.68 119.31C101.648 119.326 101.504 119.31 101.376 119.134C100.24 117.854 98.8802 111.342 101.056 106.334C101.733 104.645 102.888 103.191 104.381 102.151C105.873 101.11 107.638 100.529 109.456 100.478C110.526 100.458 111.584 100.696 112.542 101.173C113.5 101.65 114.328 102.351 114.957 103.216C115.585 104.082 115.995 105.087 116.152 106.145C116.308 107.203 116.207 108.284 115.856 109.294C115.684 109.832 115.391 110.324 115 110.731C114.609 111.139 114.13 111.452 113.6 111.646C113.418 111.334 113.164 111.069 112.86 110.873C112.555 110.677 112.209 110.555 111.849 110.518C111.49 110.48 111.126 110.528 110.788 110.658C110.45 110.787 110.147 110.994 109.904 111.262ZM98.1282 124.814C97.9322 124.263 97.5541 123.794 97.0562 123.486L97.2482 120.894H104.832C104.832 121.758 105.072 124.302 105.072 124.302C102.748 124.313 100.428 124.484 98.1282 124.814ZM103.088 119.454C103.511 117.706 103.815 115.931 104 114.142C104.52 114.709 105.227 115.069 105.991 115.157C106.755 115.245 107.525 115.056 108.16 114.622L108.416 114.798C107.732 117.922 107.645 121.147 108.16 124.302H106.56C106.604 122.788 106.437 121.275 106.064 119.806C105.6 119.39 103.792 119.454 103.088 119.454ZM90.7682 123.326C91.8406 123.058 92.9647 123.078 94.0268 123.385C95.0889 123.691 96.0512 124.272 96.8162 125.07C97.1042 125.55 97.0562 125.71 97.0402 125.758C97.0242 125.806 96.0802 125.934 95.4402 125.902C94.4947 125.75 93.5251 125.883 92.6562 126.286C91.3371 127.345 90.4727 128.867 90.2402 130.542C90.0002 134.622 101.792 134.11 105.824 133.982C102.848 137.022 93.9842 136.334 87.9842 140.526C85.8875 136.91 84.5534 132.902 84.0642 128.75C85.1202 128.27 89.0722 124.062 90.7682 123.326ZM140.8 138.542C137.344 148.638 126.512 146.046 126.064 145.934C118.512 144.03 114.144 136.99 112.496 133.726C114.288 133.31 113.776 131.55 113.6 129.854L127.552 129.534C128.672 131.662 131.328 130.958 131.2 128.83C131.217 128.367 131.07 127.913 130.787 127.547C130.504 127.18 130.101 126.924 129.649 126.823C129.196 126.723 128.723 126.783 128.311 126.995C127.899 127.207 127.574 127.556 127.392 127.982C125.392 127.806 115.552 128.078 113.488 128.302C113.248 124.014 113.488 124.318 109.536 124.334C109.168 121.327 109.168 118.286 109.536 115.278C110.374 115.435 111.241 115.291 111.984 114.873C112.727 114.454 113.299 113.788 113.6 112.99C116.256 112.654 118.928 108.046 116.576 103.118C116.136 102.291 115.529 101.564 114.794 100.983C114.059 100.402 113.211 99.9795 112.304 99.7423C124.512 99.4223 135.568 109.262 139.984 120.974C140.208 120.974 140.352 120.814 139.984 120.974C142.257 126.565 142.545 132.765 140.8 138.542ZM57.6002 292.542C57.0914 294.558 56.7173 296.605 56.4802 298.67C52.5885 299.073 48.6678 299.116 44.7682 298.798C45.0242 296.574 45.2642 294.366 45.5042 292.142L57.6002 292.542ZM270.88 227.086C274.368 224.222 289.792 227.87 287.488 241.15H138.992L137.6 223.422C145.712 220.606 151.664 224.894 153.76 230.11C154.128 231.086 156.192 230.254 152.976 226.238C150.933 223.713 148.047 222.008 144.848 221.438C152.592 206.526 174.512 208.91 178.768 224.942C178.992 225.79 180.256 225.374 180.032 224.526C178.748 219.798 175.73 215.728 171.578 213.127C167.426 210.527 162.446 209.586 157.632 210.494C158.989 207.767 160.996 205.416 163.477 203.649C165.958 201.881 168.837 200.753 171.857 200.362C174.878 199.971 177.949 200.331 180.798 201.409C183.647 202.487 186.186 204.25 188.192 206.542C189.664 208.142 194.592 217.518 196.192 218.622C194.877 220.878 194.053 223.386 193.776 225.982C191.798 226.707 190 227.85 188.503 229.332C187.007 230.815 185.847 232.603 185.104 234.574C185.051 234.695 185.048 234.832 185.096 234.955C185.144 235.078 185.239 235.177 185.36 235.23C185.481 235.283 185.618 235.286 185.741 235.238C185.864 235.19 185.963 235.095 186.016 234.974C186.984 232.732 188.52 230.781 190.472 229.313C192.424 227.845 194.726 226.912 197.149 226.605C199.572 226.298 202.033 226.628 204.289 227.563C206.546 228.497 208.52 230.004 210.016 231.934C210.122 232.083 210.283 232.183 210.463 232.213C210.643 232.243 210.828 232.2 210.976 232.094C211.125 231.988 211.225 231.828 211.255 231.647C211.285 231.467 211.242 231.283 211.136 231.134C209.293 228.694 206.76 226.862 203.865 225.875C200.971 224.888 197.846 224.792 194.896 225.598C195.366 223.051 196.347 220.625 197.78 218.466C199.213 216.307 201.067 214.461 203.232 213.038C205.85 211.36 208.851 210.375 211.954 210.174C215.057 209.974 218.16 210.565 220.972 211.893C223.784 213.22 226.212 215.24 228.029 217.764C229.846 220.287 230.993 223.231 231.36 226.318C231.395 226.478 231.486 226.619 231.618 226.716C231.749 226.813 231.911 226.859 232.073 226.845C232.236 226.832 232.388 226.759 232.501 226.642C232.614 226.524 232.681 226.369 232.688 226.206C232.264 222.684 230.902 219.341 228.743 216.526C226.584 213.712 223.708 211.529 220.416 210.206C221.484 207.389 223.257 204.893 225.565 202.957C227.873 201.022 230.64 199.711 233.6 199.15C242.944 197.71 250.96 204.894 252.144 213.358C249.696 213.764 247.372 214.718 245.346 216.151C243.32 217.584 241.646 219.457 240.448 221.63C240.16 222.174 241.04 222.654 241.344 222.126C243.091 219.174 245.76 216.876 248.939 215.587C252.119 214.298 255.634 214.088 258.944 214.99C262.129 216.005 264.9 218.022 266.844 220.742C268.788 223.461 269.8 226.736 269.728 230.078C269.728 230.51 270.304 231.054 270.736 230.75C270.912 230.638 271.424 230.27 270.896 227.086H270.88ZM178.32 54.4783C189.296 52.5583 200.72 52.2223 216.48 53.3903C219.008 75.1343 219.376 95.6143 219.776 117.486C216.704 110.702 213.584 100.798 213.632 93.9663C213.617 86.0187 211.685 78.192 208 71.1503C203.616 62.7823 197.68 56.8623 191.216 63.8063C182.256 73.4063 182.896 84.9903 183.072 97.8383C182.479 103.552 181.25 109.181 179.408 114.622C178.848 87.9503 177.296 68.3023 178.32 54.4783ZM242.448 156.462C241.271 156.278 240.073 156.278 238.896 156.462L239.056 143.854C239.103 143.569 239.084 143.276 239.001 142.999C238.918 142.722 238.773 142.467 238.576 142.254C234.912 139.182 224.656 129.294 221.264 120.478C221.264 111.198 221.12 101.79 220.752 92.5103C228.864 92.2703 236.448 92.3663 242.832 92.5103C243.472 108.11 242.272 135.374 242.448 156.462ZM178.544 199.262C175.305 198.542 171.936 198.652 168.751 199.58C165.565 200.509 162.665 202.227 160.32 204.574C160.208 201.134 159.504 179.758 159.264 173.038L177.44 172.686C177.392 175.934 178.24 196.126 178.544 199.262ZM213.968 105.006C216.896 117.118 222.144 130.062 237.664 143.23C237.664 147.55 237.168 158.478 237.456 162.638C237.136 162.638 213.584 162.798 211.856 162.942C213.646 143.685 214.351 124.343 213.968 105.006ZM183.424 105.246C184.496 124.846 186.464 144.35 189.296 163.294C185.376 163.198 166.992 162.638 164.32 162.766C164.32 160.142 163.664 145.038 163.6 143.566C173.791 132.99 180.68 119.674 183.424 105.246ZM178.624 172.654C179.776 172.654 182.32 172.926 182.176 171.79C181.457 169.289 180.476 166.87 179.248 164.574L189.456 164.718C189.696 166.19 189.92 167.662 190.144 169.134C188.64 170.734 185.6 180.014 185.184 181.694C185.152 181.806 185.147 181.924 185.169 182.038C185.192 182.152 185.241 182.259 185.312 182.35C185.696 182.83 186.704 182.894 187.776 182.894C183.12 190.27 185.648 199.39 187.424 203.886C185.21 201.945 182.616 200.485 179.808 199.598C180.176 196.67 178.832 175.342 178.64 172.654H178.624ZM186.816 189.998C187.155 187.529 187.958 185.145 189.184 182.974C196.565 183.27 203.956 183.19 211.328 182.734C212.208 186.206 220.224 195.31 210.272 208.99C207.571 209.356 204.978 210.286 202.66 211.72C200.341 213.153 198.351 215.058 196.816 217.31C191.152 208.75 185.376 200.302 186.832 189.998H186.816ZM212.56 122.446C212.32 138.574 211.328 152.702 210.144 168.158L191.312 168.654C187.76 144.062 186.24 126.462 184.912 106.254C184.544 100.526 184.176 94.5903 184.304 88.7823C184.512 78.8143 186.544 71.7103 190.704 66.3823C196.592 58.8783 201.36 62.2223 206.032 70.5263C208.715 75.3198 210.56 80.536 211.488 85.9503C212.928 94.1103 212.64 117.79 212.576 122.446H212.56ZM219.28 209.79C216.978 209.045 214.561 208.72 212.144 208.83C214.836 205.027 216.336 200.508 216.453 195.85C216.57 191.192 215.298 186.604 212.8 182.67C213.84 182.67 216.608 182.67 216.288 181.694C215.744 179.87 214.208 176.078 212.976 173.022C212.176 171.006 211.376 169.262 211.376 168.798C211.472 167.95 211.856 164.174 211.856 164.174C213.344 164.414 220.464 164.174 222.88 164.174C220.848 170.574 221.12 169.774 220.688 170.878C220.368 171.726 220.208 172.142 220.416 172.478C220.624 172.814 221.472 172.798 223.616 172.846C223.616 182.078 224.4 192.75 224.8 201.95C222.208 203.94 220.287 206.676 219.296 209.79H219.28ZM224.64 172.83L242.864 173.006C242.284 181.718 242.316 190.459 242.96 199.166C240.214 197.962 237.202 197.489 234.218 197.795C231.235 198.101 228.381 199.174 225.936 200.91C225.6 191.55 225.344 181.934 224.656 172.83H224.64ZM178.4 53.2783C179.504 40.3343 183.76 23.0063 197.6 13.0543C210.912 22.1903 214.544 37.7903 216.304 51.9183C204.96 51.0863 188.992 51.1983 178.416 53.2783H178.4ZM156.8 94.6063C160.528 94.6063 174.4 94.4143 177.6 94.3983C177.888 102.078 178.182 109.769 178.48 117.47C175.52 125.15 168.88 136.958 162.656 142.75C162.336 144.35 162.752 154.654 162.832 156.51C161.664 156.622 160.496 156.734 159.408 156.894C158.768 135.358 156.8 107.534 156.8 94.6063Z" fill="#27272A"/>
<path d="M79.3443 58.4302C75.0083 58.0942 73.9043 54.9422 72.9443 55.2302C72.6883 55.2302 72.5763 55.5662 72.5123 55.7422C71.1523 58.7022 72.8803 62.3822 75.9043 62.3822C76.8345 62.2825 77.7202 61.9322 78.4669 61.3687C79.2136 60.8051 79.7934 60.0494 80.1443 59.1822C80.1972 59.0719 80.2136 58.9477 80.1911 58.8275C80.1686 58.7073 80.1085 58.5973 80.0194 58.5136C79.9303 58.4298 79.8168 58.3766 79.6955 58.3616C79.5741 58.3466 79.4511 58.3706 79.3443 58.4302ZM78.5763 59.5342C76.4163 62.4142 72.9923 61.1342 73.3283 57.1822C73.992 57.9169 74.8014 58.5054 75.7049 58.9103C76.6084 59.3152 77.5862 59.5277 78.5763 59.5342ZM200 128.382C199.975 128.212 199.889 128.056 199.758 127.944C199.627 127.831 199.461 127.769 199.288 127.769C199.116 127.769 198.949 127.831 198.819 127.944C198.688 128.056 198.602 128.212 198.576 128.382C198.576 130.798 199.376 160.606 199.824 163.838C199.824 163.991 199.885 164.137 199.993 164.246C200.101 164.354 200.248 164.414 200.4 164.414C200.553 164.414 200.7 164.354 200.808 164.246C200.916 164.137 200.976 163.991 200.976 163.838C201.696 153.662 200.336 138.926 200 128.382ZM73.6003 50.8942C74.1123 50.8942 74.2723 50.3502 74.1603 49.7902C73.9363 48.6702 73.0403 48.6062 72.8163 49.2462C72.5923 49.8862 72.9123 50.8942 73.6003 50.8942ZM71.9043 44.1262C71.1839 44.2694 70.5347 44.656 70.0657 45.2212C69.5966 45.7864 69.3363 46.4958 69.3283 47.2302C69.4563 48.0622 70.1443 48.0622 70.2563 47.4542C70.5923 45.7422 71.3123 45.8542 72.2083 45.3102C72.3374 45.2472 72.4408 45.1415 72.501 45.0111C72.5613 44.8807 72.5747 44.7335 72.5389 44.5943C72.5032 44.4552 72.4205 44.3326 72.3049 44.2473C72.1893 44.162 72.0478 44.1193 71.9043 44.1262ZM235.328 194.526C235.328 194.83 235.92 194.734 235.984 194.43C236.24 193.342 235.056 180.942 235.248 177.582C235.248 177.15 234.608 177.166 234.576 177.582C234.281 183.241 234.533 188.916 235.328 194.526ZM198.528 207.534C198.848 207.774 199.344 207.39 199.136 207.038C198.528 205.966 197.664 205.134 196.752 203.486C195.352 200.875 194.545 197.987 194.387 195.028C194.23 192.069 194.726 189.112 195.84 186.366C196.016 185.966 195.376 185.726 195.184 186.142C193.824 189.264 193.271 192.678 193.576 196.069C193.881 199.461 195.033 202.721 196.928 205.55C197.356 206.29 197.896 206.959 198.528 207.534Z" fill="#27272A"/>
</svg>
